<?xml version="1.0" standalone="no"?>
<!DOCTYPE svg PUBLIC "-//W3C//DTD SVG 20010904//EN"
 "http://www.w3.org/TR/2001/REC-SVG-20010904/DTD/svg10.dtd">
<svg version="1.0" xmlns="http://www.w3.org/2000/svg"
 width="900.000000pt" height="900.000000pt" viewBox="0 0 900.000000 900.000000"
 preserveAspectRatio="xMidYMid meet">

<g transform="translate(0.000000,900.000000) scale(0.100000,-0.100000)"
fill="#FFD7D7" stroke="none">
<path d="M4295 7694 c-692 -56 -1266 -278 -1795 -693 -122 -96 -405 -379 -501
-501 -379 -482 -594 -997 -675 -1615 -24 -180 -24 -590 0 -770 81 -618 296
-1133 675 -1615 96 -122 379 -405 501 -501 482 -379 997 -594 1615 -675 180
-24 590 -24 770 0 618 81 1133 296 1615 675 122 96 405 379 501 501 379 482
594 997 675 1615 24 180 24 590 0 770 -81 618 -296 1133 -675 1615 -96 122
-379 405 -501 501 -481 378 -1006 598 -1610 674 -121 15 -492 27 -595 19z
m497 -651 c201 -333 345 -641 452 -969 45 -141 86 -276 86 -288 0 -3 -299 -6
-664 -6 l-663 0 -17 43 c-24 65 -91 160 -158 227 l-60 60 47 117 c56 141 165
373 235 503 60 110 67 123 173 293 l79 127 213 0 213 0 64 -107z m-1307 -225
c-84 -175 -156 -342 -214 -499 l-32 -86 -57 -17 c-184 -57 -329 -180 -410
-348 l-37 -77 -278 0 -279 -1 28 48 c282 487 741 889 1269 1113 50 21 91 39
92 39 1 0 -36 -78 -82 -172z m2097 107 c496 -220 934 -615 1227 -1107 l23 -38
-466 0 -465 0 -11 43 c-100 387 -210 695 -355 995 -41 83 -70 152 -65 152 5 0
56 -20 112 -45z m-2767 -1737 c16 -24 58 -74 95 -113 l67 -70 -14 -165 c-18
-206 -11 -733 11 -925 9 -71 16 -133 16 -137 0 -5 -234 -8 -519 -8 l-520 0
-16 57 c-114 392 -113 935 2 1346 l16 57 417 0 417 0 28 -42z m2654 -70 c29
-285 38 -582 25 -848 l-7 -126 -77 -27 c-43 -14 -106 -43 -141 -64 -81 -47
-186 -154 -224 -226 l-30 -57 -740 2 -740 3 -17 150 c-30 273 -40 520 -28 740
6 110 13 208 16 217 3 9 19 20 37 23 18 4 73 26 122 50 102 50 188 121 255
214 l45 61 746 0 746 0 12 -112z m1596 55 c56 -194 85 -418 85 -663 0 -239
-18 -400 -72 -642 l-21 -98 -413 0 -413 0 -35 58 c-19 32 -67 90 -106 129
l-70 71 12 257 c12 269 3 594 -26 838 l-12 107 527 0 528 0 16 -57z m-3942
-2093 c77 -290 201 -628 333 -907 34 -73 58 -133 52 -133 -16 0 -270 124 -341
166 -411 246 -746 583 -972 977 l-27 47 458 -2 459 -3 38 -145z m1907 73 c22
-42 64 -97 113 -147 42 -43 77 -83 77 -88 0 -19 -131 -339 -188 -459 -68 -143
-170 -328 -273 -493 -53 -86 -79 -118 -97 -123 -14 -3 -111 -3 -216 0 -181 5
-192 7 -206 27 -99 143 -291 506 -383 725 -79 189 -207 568 -207 614 0 8 190
11 673 11 l672 0 35 -67z m1774 20 c-200 -348 -510 -671 -869 -906 -144 -94
-464 -257 -505 -257 -5 0 31 82 80 183 90 188 163 361 221 528 l33 95 60 18
c34 9 90 34 126 53 89 49 215 178 260 265 l35 68 293 0 293 0 -27 -47z"/>
</g>
</svg>
